<mxfile host="Electron" modified="2024-07-23T13:51:50.858Z" agent="Mozilla/5.0 (Windows NT 10.0; Win64; x64) AppleWebKit/537.36 (KHTML, like Gecko) draw.io/24.6.4 Chrome/124.0.6367.207 Electron/30.0.6 Safari/537.36" etag="3JpnGt_QJpM2Z3IZjl6Z" version="24.6.4" type="device">
  <diagram name="Page-1" id="lpnLTRdYzm4OXFZ6302t">
    <mxGraphModel dx="1387" dy="820" grid="1" gridSize="10" guides="1" tooltips="1" connect="1" arrows="1" fold="1" page="1" pageScale="1" pageWidth="1169" pageHeight="827" math="0" shadow="0">
      <root>
        <mxCell id="0" />
        <mxCell id="1" parent="0" />
        <mxCell id="N8iVeF521Qek_lVPPYfR-1" style="edgeStyle=orthogonalEdgeStyle;rounded=0;orthogonalLoop=1;jettySize=auto;html=1;entryX=0;entryY=0.5;entryDx=0;entryDy=0;" edge="1" parent="1" source="N8iVeF521Qek_lVPPYfR-2" target="N8iVeF521Qek_lVPPYfR-4">
          <mxGeometry relative="1" as="geometry" />
        </mxCell>
        <mxCell id="N8iVeF521Qek_lVPPYfR-2" value="Alarmd" style="rounded=1;whiteSpace=wrap;html=1;fillColor=#FFCCE6;" vertex="1" parent="1">
          <mxGeometry x="680" y="310" width="180" height="60" as="geometry" />
        </mxCell>
        <mxCell id="N8iVeF521Qek_lVPPYfR-3" value="Alarmd Drools" style="rounded=1;whiteSpace=wrap;html=1;fillColor=#FFCCE6;" vertex="1" parent="1">
          <mxGeometry x="680" y="480" width="180" height="60" as="geometry" />
        </mxCell>
        <mxCell id="N8iVeF521Qek_lVPPYfR-49" style="edgeStyle=orthogonalEdgeStyle;rounded=0;orthogonalLoop=1;jettySize=auto;html=1;" edge="1" parent="1" source="N8iVeF521Qek_lVPPYfR-4">
          <mxGeometry relative="1" as="geometry">
            <mxPoint x="1150" y="340" as="targetPoint" />
          </mxGeometry>
        </mxCell>
        <mxCell id="N8iVeF521Qek_lVPPYfR-4" value="Kafka Forwarder" style="rounded=1;whiteSpace=wrap;html=1;fillColor=#CCFFCC;" vertex="1" parent="1">
          <mxGeometry x="910" y="310" width="180" height="60" as="geometry" />
        </mxCell>
        <mxCell id="N8iVeF521Qek_lVPPYfR-9" style="edgeStyle=orthogonalEdgeStyle;rounded=0;orthogonalLoop=1;jettySize=auto;html=1;" edge="1" parent="1" source="N8iVeF521Qek_lVPPYfR-10" target="N8iVeF521Qek_lVPPYfR-2">
          <mxGeometry relative="1" as="geometry" />
        </mxCell>
        <mxCell id="N8iVeF521Qek_lVPPYfR-48" style="edgeStyle=orthogonalEdgeStyle;rounded=0;orthogonalLoop=1;jettySize=auto;html=1;exitX=0.5;exitY=0;exitDx=0;exitDy=0;" edge="1" parent="1" source="N8iVeF521Qek_lVPPYfR-10">
          <mxGeometry relative="1" as="geometry">
            <mxPoint x="1000" y="310" as="targetPoint" />
            <Array as="points">
              <mxPoint x="550" y="290" />
              <mxPoint x="1000" y="290" />
            </Array>
          </mxGeometry>
        </mxCell>
        <mxCell id="N8iVeF521Qek_lVPPYfR-10" value="Eventd" style="rounded=1;whiteSpace=wrap;html=1;fillColor=#FFCCE6;" vertex="1" parent="1">
          <mxGeometry x="460" y="310" width="180" height="60" as="geometry" />
        </mxCell>
        <mxCell id="N8iVeF521Qek_lVPPYfR-14" value="eventconf.xml" style="whiteSpace=wrap;html=1;shape=mxgraph.basic.document;fillColor=#FFCCE6;" vertex="1" parent="1">
          <mxGeometry x="620" y="190" width="115" height="40" as="geometry" />
        </mxCell>
        <mxCell id="N8iVeF521Qek_lVPPYfR-15" value="alarmd.drl&lt;div&gt;alarm lifecycle rules&lt;/div&gt;" style="whiteSpace=wrap;html=1;shape=mxgraph.basic.document;fillColor=#FFCCE6;" vertex="1" parent="1">
          <mxGeometry x="725" y="560" width="90" height="80" as="geometry" />
        </mxCell>
        <mxCell id="N8iVeF521Qek_lVPPYfR-27" value="Trapd" style="rounded=1;whiteSpace=wrap;html=1;" vertex="1" parent="1">
          <mxGeometry x="140" y="30" width="70" height="60" as="geometry" />
        </mxCell>
        <mxCell id="N8iVeF521Qek_lVPPYfR-28" style="edgeStyle=orthogonalEdgeStyle;rounded=0;orthogonalLoop=1;jettySize=auto;html=1;exitX=0.5;exitY=1;exitDx=0;exitDy=0;" edge="1" parent="1" source="N8iVeF521Qek_lVPPYfR-27" target="N8iVeF521Qek_lVPPYfR-27">
          <mxGeometry relative="1" as="geometry" />
        </mxCell>
        <mxCell id="N8iVeF521Qek_lVPPYfR-30" style="edgeStyle=orthogonalEdgeStyle;rounded=0;orthogonalLoop=1;jettySize=auto;html=1;exitX=0.5;exitY=1;exitDx=0;exitDy=0;" edge="1" parent="1">
          <mxGeometry relative="1" as="geometry">
            <mxPoint x="175" y="160" as="sourcePoint" />
            <mxPoint x="175" y="160" as="targetPoint" />
          </mxGeometry>
        </mxCell>
        <mxCell id="N8iVeF521Qek_lVPPYfR-32" style="edgeStyle=orthogonalEdgeStyle;rounded=0;orthogonalLoop=1;jettySize=auto;html=1;entryX=0;entryY=0.25;entryDx=0;entryDy=0;exitX=0.1;exitY=0.5;exitDx=0;exitDy=0;exitPerimeter=0;" edge="1" parent="1" source="N8iVeF521Qek_lVPPYfR-33" target="N8iVeF521Qek_lVPPYfR-10">
          <mxGeometry relative="1" as="geometry">
            <Array as="points">
              <mxPoint x="380" y="135" />
              <mxPoint x="380" y="325" />
            </Array>
          </mxGeometry>
        </mxCell>
        <mxCell id="N8iVeF521Qek_lVPPYfR-33" value="" style="shape=curlyBracket;whiteSpace=wrap;html=1;rounded=1;flipH=1;labelPosition=right;verticalLabelPosition=middle;align=left;verticalAlign=middle;size=0.5;" vertex="1" parent="1">
          <mxGeometry x="220" y="30" width="30" height="210" as="geometry" />
        </mxCell>
        <mxCell id="N8iVeF521Qek_lVPPYfR-34" value="Incomming Traps, web ui and other internal events" style="text;html=1;align=left;verticalAlign=middle;whiteSpace=wrap;rounded=0;" vertex="1" parent="1">
          <mxGeometry x="110" y="190" width="110" height="30" as="geometry" />
        </mxCell>
        <mxCell id="N8iVeF521Qek_lVPPYfR-36" value="Web UI" style="rounded=1;whiteSpace=wrap;html=1;" vertex="1" parent="1">
          <mxGeometry x="140" y="110" width="70" height="60" as="geometry" />
        </mxCell>
        <mxCell id="N8iVeF521Qek_lVPPYfR-64" style="edgeStyle=orthogonalEdgeStyle;rounded=0;orthogonalLoop=1;jettySize=auto;html=1;entryX=0;entryY=0.75;entryDx=0;entryDy=0;exitX=0.211;exitY=-0.033;exitDx=0;exitDy=0;exitPerimeter=0;" edge="1" parent="1" source="N8iVeF521Qek_lVPPYfR-38" target="N8iVeF521Qek_lVPPYfR-10">
          <mxGeometry relative="1" as="geometry">
            <Array as="points">
              <mxPoint x="328" y="550" />
              <mxPoint x="380" y="550" />
              <mxPoint x="380" y="355" />
            </Array>
          </mxGeometry>
        </mxCell>
        <mxCell id="N8iVeF521Qek_lVPPYfR-65" style="edgeStyle=orthogonalEdgeStyle;rounded=0;orthogonalLoop=1;jettySize=auto;html=1;entryX=0.5;entryY=1;entryDx=0;entryDy=0;exitX=0.628;exitY=-0.033;exitDx=0;exitDy=0;exitPerimeter=0;" edge="1" parent="1" source="N8iVeF521Qek_lVPPYfR-38" target="N8iVeF521Qek_lVPPYfR-39">
          <mxGeometry relative="1" as="geometry">
            <mxPoint x="390" y="680" as="sourcePoint" />
            <Array as="points">
              <mxPoint x="390" y="688" />
            </Array>
          </mxGeometry>
        </mxCell>
        <mxCell id="N8iVeF521Qek_lVPPYfR-38" value="pollerd" style="rounded=1;whiteSpace=wrap;html=1;fillColor=#CCFFFF;" vertex="1" parent="1">
          <mxGeometry x="290" y="660" width="180" height="60" as="geometry" />
        </mxCell>
        <mxCell id="N8iVeF521Qek_lVPPYfR-39" value="jdbcpoller" style="rounded=1;whiteSpace=wrap;html=1;fillColor=#CCFFFF;" vertex="1" parent="1">
          <mxGeometry x="350" y="580" width="80" height="60" as="geometry" />
        </mxCell>
        <mxCell id="N8iVeF521Qek_lVPPYfR-44" style="edgeStyle=orthogonalEdgeStyle;rounded=0;orthogonalLoop=1;jettySize=auto;html=1;entryX=0;entryY=0.5;entryDx=0;entryDy=0;" edge="1" parent="1" source="N8iVeF521Qek_lVPPYfR-40" target="N8iVeF521Qek_lVPPYfR-10">
          <mxGeometry relative="1" as="geometry" />
        </mxCell>
        <mxCell id="N8iVeF521Qek_lVPPYfR-40" value="syslogd" style="rounded=1;whiteSpace=wrap;html=1;fillColor=#FFFFCC;" vertex="1" parent="1">
          <mxGeometry x="130" y="310" width="180" height="60" as="geometry" />
        </mxCell>
        <mxCell id="N8iVeF521Qek_lVPPYfR-41" value="" style="endArrow=classic;html=1;rounded=0;entryX=0;entryY=0.5;entryDx=0;entryDy=0;" edge="1" parent="1" target="N8iVeF521Qek_lVPPYfR-40">
          <mxGeometry width="50" height="50" relative="1" as="geometry">
            <mxPoint x="50" y="340" as="sourcePoint" />
            <mxPoint x="590" y="290" as="targetPoint" />
          </mxGeometry>
        </mxCell>
        <mxCell id="N8iVeF521Qek_lVPPYfR-42" value="syslog UDP&lt;div&gt;messages&lt;/div&gt;" style="text;html=1;align=center;verticalAlign=middle;whiteSpace=wrap;rounded=0;" vertex="1" parent="1">
          <mxGeometry x="20" y="300" width="60" height="30" as="geometry" />
        </mxCell>
        <mxCell id="N8iVeF521Qek_lVPPYfR-46" value="EventTranslator" style="rounded=1;whiteSpace=wrap;html=1;fillColor=#CCCCFF;" vertex="1" parent="1">
          <mxGeometry x="460" y="480" width="180" height="60" as="geometry" />
        </mxCell>
        <mxCell id="N8iVeF521Qek_lVPPYfR-47" value="Kafka&lt;div&gt;protobuf&lt;/div&gt;" style="text;html=1;align=center;verticalAlign=middle;whiteSpace=wrap;rounded=0;" vertex="1" parent="1">
          <mxGeometry x="1070" y="300" width="100" height="30" as="geometry" />
        </mxCell>
        <mxCell id="N8iVeF521Qek_lVPPYfR-52" value="" style="endArrow=classic;html=1;rounded=0;entryX=0.75;entryY=1;entryDx=0;entryDy=0;exitX=0.75;exitY=0;exitDx=0;exitDy=0;" edge="1" parent="1" source="N8iVeF521Qek_lVPPYfR-46" target="N8iVeF521Qek_lVPPYfR-10">
          <mxGeometry width="50" height="50" relative="1" as="geometry">
            <mxPoint x="560" y="430" as="sourcePoint" />
            <mxPoint x="610" y="380" as="targetPoint" />
          </mxGeometry>
        </mxCell>
        <mxCell id="N8iVeF521Qek_lVPPYfR-53" value="" style="endArrow=classic;html=1;rounded=0;entryX=0.25;entryY=0;entryDx=0;entryDy=0;exitX=0.25;exitY=1;exitDx=0;exitDy=0;" edge="1" parent="1" source="N8iVeF521Qek_lVPPYfR-10" target="N8iVeF521Qek_lVPPYfR-46">
          <mxGeometry width="50" height="50" relative="1" as="geometry">
            <mxPoint x="560" y="430" as="sourcePoint" />
            <mxPoint x="610" y="380" as="targetPoint" />
          </mxGeometry>
        </mxCell>
        <mxCell id="N8iVeF521Qek_lVPPYfR-58" value="" style="endArrow=classic;html=1;rounded=0;entryX=0.211;entryY=0.033;entryDx=0;entryDy=0;exitX=0.25;exitY=1;exitDx=0;exitDy=0;entryPerimeter=0;" edge="1" parent="1" target="N8iVeF521Qek_lVPPYfR-3">
          <mxGeometry width="50" height="50" relative="1" as="geometry">
            <mxPoint x="720" y="370" as="sourcePoint" />
            <mxPoint x="720" y="400" as="targetPoint" />
          </mxGeometry>
        </mxCell>
        <mxCell id="N8iVeF521Qek_lVPPYfR-59" value="" style="endArrow=classic;html=1;rounded=0;entryX=0.75;entryY=1;entryDx=0;entryDy=0;exitX=0.75;exitY=0;exitDx=0;exitDy=0;" edge="1" parent="1" source="N8iVeF521Qek_lVPPYfR-3" target="N8iVeF521Qek_lVPPYfR-2">
          <mxGeometry width="50" height="50" relative="1" as="geometry">
            <mxPoint x="810" y="370" as="sourcePoint" />
            <mxPoint x="810" y="400" as="targetPoint" />
          </mxGeometry>
        </mxCell>
        <mxCell id="N8iVeF521Qek_lVPPYfR-60" value="postgresql db" style="shape=cylinder3;whiteSpace=wrap;html=1;boundedLbl=1;backgroundOutline=1;size=15;" vertex="1" parent="1">
          <mxGeometry x="520" y="570" width="60" height="80" as="geometry" />
        </mxCell>
        <mxCell id="N8iVeF521Qek_lVPPYfR-61" value="" style="endArrow=classic;startArrow=classic;html=1;rounded=0;entryX=0.5;entryY=0;entryDx=0;entryDy=0;entryPerimeter=0;exitX=0.5;exitY=1;exitDx=0;exitDy=0;" edge="1" parent="1" source="N8iVeF521Qek_lVPPYfR-46" target="N8iVeF521Qek_lVPPYfR-60">
          <mxGeometry width="50" height="50" relative="1" as="geometry">
            <mxPoint x="560" y="510" as="sourcePoint" />
            <mxPoint x="610" y="460" as="targetPoint" />
          </mxGeometry>
        </mxCell>
        <mxCell id="N8iVeF521Qek_lVPPYfR-63" value="" style="endArrow=classic;startArrow=classic;html=1;rounded=0;entryX=0;entryY=0.5;entryDx=0;entryDy=0;entryPerimeter=0;exitX=1;exitY=0.5;exitDx=0;exitDy=0;" edge="1" parent="1" source="N8iVeF521Qek_lVPPYfR-39" target="N8iVeF521Qek_lVPPYfR-60">
          <mxGeometry width="50" height="50" relative="1" as="geometry">
            <mxPoint x="560" y="510" as="sourcePoint" />
            <mxPoint x="610" y="460" as="targetPoint" />
          </mxGeometry>
        </mxCell>
        <mxCell id="N8iVeF521Qek_lVPPYfR-67" value="" style="endArrow=classic;html=1;rounded=0;entryX=0;entryY=0.5;entryDx=0;entryDy=0;" edge="1" parent="1">
          <mxGeometry width="50" height="50" relative="1" as="geometry">
            <mxPoint x="60" y="60" as="sourcePoint" />
            <mxPoint x="140" y="60" as="targetPoint" />
          </mxGeometry>
        </mxCell>
        <mxCell id="N8iVeF521Qek_lVPPYfR-68" value="trap UDP&lt;div&gt;messages&lt;/div&gt;" style="text;html=1;align=center;verticalAlign=middle;whiteSpace=wrap;rounded=0;" vertex="1" parent="1">
          <mxGeometry x="30" y="20" width="60" height="30" as="geometry" />
        </mxCell>
        <mxCell id="N8iVeF521Qek_lVPPYfR-69" value="loss of service events" style="text;html=1;align=center;verticalAlign=middle;whiteSpace=wrap;rounded=0;" vertex="1" parent="1">
          <mxGeometry x="280" y="510" width="100" height="30" as="geometry" />
        </mxCell>
        <mxCell id="N8iVeF521Qek_lVPPYfR-70" value="events for forwarding" style="text;html=1;align=center;verticalAlign=middle;whiteSpace=wrap;rounded=0;" vertex="1" parent="1">
          <mxGeometry x="740" y="250" width="60" height="30" as="geometry" />
        </mxCell>
        <mxCell id="N8iVeF521Qek_lVPPYfR-71" value="&amp;nbsp;Alarm Change Events for forwarding" style="text;html=1;align=center;verticalAlign=middle;whiteSpace=wrap;rounded=0;" vertex="1" parent="1">
          <mxGeometry x="830" y="384" width="100" height="30" as="geometry" />
        </mxCell>
        <mxCell id="N8iVeF521Qek_lVPPYfR-72" value="syslog&lt;div&gt;events&lt;/div&gt;" style="text;html=1;align=center;verticalAlign=middle;whiteSpace=wrap;rounded=0;" vertex="1" parent="1">
          <mxGeometry x="310" y="310" width="60" height="30" as="geometry" />
        </mxCell>
        <mxCell id="N8iVeF521Qek_lVPPYfR-73" value="traps and web ui events" style="text;html=1;align=center;verticalAlign=middle;whiteSpace=wrap;rounded=0;" vertex="1" parent="1">
          <mxGeometry x="250" y="100" width="110" height="30" as="geometry" />
        </mxCell>
        <mxCell id="N8iVeF521Qek_lVPPYfR-74" value="syslogd-grok-patterns.txt" style="whiteSpace=wrap;html=1;shape=mxgraph.basic.document;fillColor=#FFFFCC;" vertex="1" parent="1">
          <mxGeometry x="90" y="400" width="90" height="50" as="geometry" />
        </mxCell>
        <mxCell id="N8iVeF521Qek_lVPPYfR-75" value="syslogd-configuration.xml" style="whiteSpace=wrap;html=1;shape=mxgraph.basic.document;fillColor=#FFFFCC;" vertex="1" parent="1">
          <mxGeometry x="220" y="400" width="90" height="50" as="geometry" />
        </mxCell>
        <mxCell id="N8iVeF521Qek_lVPPYfR-76" value="translator-configuration.xml" style="whiteSpace=wrap;html=1;shape=mxgraph.basic.document;fillColor=#CCCCFF;" vertex="1" parent="1">
          <mxGeometry x="495" y="660" width="155" height="50" as="geometry" />
        </mxCell>
        <mxCell id="N8iVeF521Qek_lVPPYfR-77" value="poller-configuration.xml" style="whiteSpace=wrap;html=1;shape=mxgraph.basic.document;fillColor=#CCFFFF;" vertex="1" parent="1">
          <mxGeometry x="310" y="740" width="140" height="50" as="geometry" />
        </mxCell>
      </root>
    </mxGraphModel>
  </diagram>
</mxfile>
